Abduction_states
version=1
nRows=17
nColumns=41
inDegrees=yes

# SIMM Motion File Header:
name Abduction_states
datacolumns 41
datarows 17
otherdata 1
range 0.00000000 1.91098433
endheader
time	/jointset/ground_thorax/thorax_tilt/value	/jointset/ground_thorax/thorax_tilt/speed	/jointset/ground_thorax/thorax_list/value	/jointset/ground_thorax/thorax_list/speed	/jointset/ground_thorax/thorax_rotation/value	/jointset/ground_thorax/thorax_rotation/speed	/jointset/ground_thorax/thorax_tx/value	/jointset/ground_thorax/thorax_tx/speed	/jointset/ground_thorax/thorax_ty/value	/jointset/ground_thorax/thorax_ty/speed	/jointset/ground_thorax/thorax_tz/value	/jointset/ground_thorax/thorax_tz/speed	/jointset/sternoclavicular/sternoclavicular_r2/value	/jointset/sternoclavicular/sternoclavicular_r2/speed	/jointset/sternoclavicular/sternoclavicular_r3/value	/jointset/sternoclavicular/sternoclavicular_r3/speed	/jointset/unrotscap/unrotscap_r3/value	/jointset/unrotscap/unrotscap_r3/speed	/jointset/unrotscap/unrotscap_r2/value	/jointset/unrotscap/unrotscap_r2/speed	/jointset/acromioclavicular/acromioclavicular_r2/value	/jointset/acromioclavicular/acromioclavicular_r2/speed	/jointset/acromioclavicular/acromioclavicular_r3/value	/jointset/acromioclavicular/acromioclavicular_r3/speed	/jointset/acromioclavicular/acromioclavicular_r1/value	/jointset/acromioclavicular/acromioclavicular_r1/speed	/jointset/unrothum/unrothum_r1/value	/jointset/unrothum/unrothum_r1/speed	/jointset/unrothum/unrothum_r3/value	/jointset/unrothum/unrothum_r3/speed	/jointset/unrothum/unrothum_r2/value	/jointset/unrothum/unrothum_r2/speed	/jointset/shoulder0/elv_angle/value	/jointset/shoulder0/elv_angle/speed	/jointset/shoulder1/shoulder_elv/value	/jointset/shoulder1/shoulder_elv/speed	/jointset/shoulder1/shoulder1_r2/value	/jointset/shoulder1/shoulder1_r2/speed	/jointset/shoulder2/shoulder_rot/value	/jointset/shoulder2/shoulder_rot/speed
      0.00000000	      0.00000000	      0.00000000	      0.00000000	      0.00000000	      0.00000000	      0.00000000	      0.00000000	      0.00000000	      0.00000000	      0.00000000	      0.00000000	      0.00000000	      0.00000000	      0.00000000	     -0.00000000	      0.00000000	      0.00000000	      0.00000000	     -0.00000000	      0.00000000	      0.00000000	      0.00000000	     -0.00000000	      0.00000000	     -0.00000000	      0.00000000	      0.00000000	      0.00000000	      0.00000000	      0.00000000	     -0.00000000	      0.00000000	     30.00000000	      0.00000000	     -0.00000000	      0.00000000	    -30.00000000	      0.00000000	      0.00000000	      0.00000000
      0.01000000	     -0.00000000	     -0.00000000	     -0.00000000	     -0.00000000	      0.00000000	      0.00000000	      0.00000000	      0.00000000	      0.00000000	      0.00000000	     -0.00000000	     -0.00000000	     -0.00065188	     -0.13035654	      0.00027611	      0.05521283	     -0.00027611	     -0.05521283	      0.00065188	      0.13035654	     -0.00013199	     -0.02639434	      0.00106670	      0.21330696	      0.00047949	      0.09588217	     -0.00047949	     -0.09588217	     -0.00106670	     -0.21330696	      0.00013199	      0.02639434	     30.00000000	     -0.00000000	      0.00269376	      0.53866848	    -30.00000000	     -0.00000000	     -0.00000000	     -0.00000000
      0.06000000	     -0.00000000	     -0.00000000	     -0.00000000	     -0.00000000	      0.00000000	      0.00000000	      0.00000000	      0.00000000	      0.00000000	      0.00000000	      0.00000000	      0.00000000	     -0.02343108	     -0.78030081	      0.00992429	      0.33049833	     -0.00992429	     -0.33049833	      0.02343108	      0.78030081	     -0.00474428	     -0.15799382	      0.03834110	      1.27683347	      0.01723445	      0.57394077	     -0.01723445	     -0.57394077	     -0.03834110	     -1.27683347	      0.00474428	      0.15799382	     30.00000000	     -0.00000000	      0.09682357	      3.22441403	    -30.00000000	     -0.00000000	      0.00000000	      0.00000000
      0.31000000	     -0.00000000	      0.00000000	     -0.00000000	     -0.00000000	     -0.00000000	     -0.00000000	      0.00000000	      0.00000000	      0.00000000	      0.00000000	      0.00000000	      0.00000000	     -0.62058150	     -3.98418281	      0.26284883	      1.68751047	     -0.26284883	     -1.68751047	      0.62058150	      3.98418281	     -0.12565416	     -0.80670976	      1.01547919	      6.51945753	      0.45646118	      2.93051723	     -0.45646118	     -2.93051723	     -1.01547919	     -6.51945753	      0.12565416	      0.80670976	     30.00000000	     -0.00000000	      2.56441066	     16.46372125	    -30.00000000	     -0.00000000	     -0.00000000	      0.00000000
      1.02520729	     -0.00000000	     -0.00000000	      0.00000000	      0.00000000	      0.00000000	      0.00000000	      0.00000000	      0.00000000	      0.00000000	     -0.00000000	      0.00000000	      0.00000000	     -6.63372296	    -12.72290749	      2.80972974	      5.38881888	     -2.80972974	     -5.38881888	      6.63372296	     12.72290749	     -1.34318362	     -2.57611013	     10.85499265	     20.81893803	      4.87935427	      9.35817992	     -4.87935427	     -9.35817992	    -10.85499265	    -20.81893803	      1.34318362	      2.57611013	     30.00000000	     -0.00000000	     27.41233794	     52.57449578	    -30.00000000	     -0.00000000	      0.00000000	      0.00000000
      1.13724689	     -0.00000000	     -0.00000000	      0.00000000	      0.00000000	      0.00000000	      0.00000000	      0.00000000	      0.00000000	     -0.00000000	     -0.00000000	      0.00000000	      0.00000000	     -8.13266188	    -14.03148871	      3.44460902	      5.94307169	     -3.44460902	     -5.94307169	      8.13266188	     14.03148871	     -1.64668592	     -2.84106917	     13.30775877	     22.96021521	      5.98188057	     10.32069093	     -5.98188057	    -10.32069093	    -13.30775877	    -22.96021521	      1.64668592	      2.84106917	     30.00000000	     -0.00000000	     33.60635908	     57.98190742	    -30.00000000	     -0.00000000	      0.00000000	      0.00000000
      1.24881746	     -0.00000000	     -0.00000000	      0.00000000	      0.00000000	      0.00000000	      0.00000000	      0.00000000	      0.00000000	     -0.00000000	     -0.00000000	      0.00000000	      0.00000000	     -9.77003826	    -15.31691384	      4.13812382	      6.48751667	     -4.13812382	     -6.48751667	      9.77003826	     15.31691384	     -1.97821878	     -3.10133961	     15.98705495	     25.06360126	      7.18623286	     11.26616976	     -7.18623286	    -11.26616976	    -15.98705495	    -25.06360126	      1.97821878	      3.10133961	     30.00000000	     -0.00000000	     40.37244125	     63.29363182	    -30.00000000	     -0.00000000	      0.00000000	      0.00000000
      1.33328943	     -0.00000000	     -0.00000000	      0.00000000	      0.00000000	      0.00000000	      0.00000000	      0.00000000	      0.00000000	     -0.00000000	     -0.00000000	      0.00000000	      0.00000000	    -11.10455128	    -16.27783773	      4.70336011	      6.89451836	     -4.70336011	     -6.89451836	     11.10455128	     16.27783773	     -2.24842844	     -3.29590565	     18.17076523	     26.63599459	      8.16781769	     11.97296564	     -8.16781769	    -11.97296564	    -18.17076523	    -26.63599459	      2.24842844	      3.29590565	     30.00000000	     -0.00000000	     45.88701009	     67.26442927	    -30.00000000	     -0.00000000	      0.00000000	      0.00000000
      1.43710928	     -0.00000000	     -0.00000000	      0.00000000	      0.00000000	      0.00000000	      0.00000000	      0.00000000	      0.00000000	     -0.00000000	     -0.00000000	      0.00000000	      0.00000000	    -12.85513165	    -17.44184087	      5.44482275	      7.38753476	     -5.44482275	     -7.38753476	     12.85513165	     17.44184087	     -2.60288263	     -3.53159079	     21.03530106	     28.54069361	      9.45543580	     12.82913400	     -9.45543580	    -12.82913400	    -21.03530106	    -28.54069361	      2.60288263	      3.53159079	     30.00000000	     -0.00000000	     53.12088181	     72.07440519	    -30.00000000	     -0.00000000	      0.00000000	      0.00000000
      1.52580779	     -0.00000000	     -0.00000000	      0.00000000	      0.00000000	      0.00000000	      0.00000000	      0.00000000	     -0.00000000	     -0.00000000	     -0.00000000	      0.00000000	      0.00000000	    -14.44537197	    -18.40771851	      6.11837296	      7.79663462	     -6.11837296	     -7.79663462	     14.44537197	     18.40771851	     -2.92487147	     -3.72715986	     23.63746685	     30.12119292	     10.62511773	     13.53957355	    -10.62511773	    -13.53957355	    -23.63746685	    -30.12119292	      2.92487147	      3.72715986	     30.00000000	     -0.00000000	     59.69218503	     76.06567287	    -30.00000000	     -0.00000000	      0.00000000	      0.00000000
      1.59750584	     -0.00000000	     -0.00000000	      0.00000000	      0.00000000	      0.00000000	      0.00000000	      0.00000000	     -0.00000000	     -0.00000000	     -0.00000000	      0.00000000	      0.00000000	    -15.79142717	    -19.12159693	      6.68849797	      8.09899959	     -6.68849797	     -8.09899959	     15.79142717	     19.12159693	     -3.19741816	     -3.87170461	     25.84006400	     31.28933712	     11.61519227	     14.06465815	    -11.61519227	    -14.06465815	    -25.84006400	    -31.28933712	      3.19741816	      3.87170461	     30.00000000	     -0.00000000	     65.25444927	     79.01561164	    -30.00000000	     -0.00000000	      0.00000000	      0.00000000
      1.65783925	     -0.00000000	     -0.00000000	      0.00000000	      0.00000000	      0.00000000	      0.00000000	      0.00000000	     -0.00000000	     -0.00000000	     -0.00000000	      0.00000000	      0.00000000	    -16.95970105	    -19.56582078	      7.18332325	      8.28715170	     -7.18332325	     -8.28715170	     16.95970105	     19.56582078	     -3.43396804	     -3.96165021	     27.75175137	     32.01623614	     12.47450192	     14.39140160	    -12.47450192	    -14.39140160	    -27.75175137	    -32.01623614	      3.43396804	      3.96165021	     30.00000000	     -0.00000000	     70.08207302	     80.85126479	    -30.00000000	     -0.00000000	      0.00000000	      0.00000000
      1.71167369	     -0.00000000	     -0.00000000	      0.00000000	      0.00000000	      0.00000000	      0.00000000	      0.00000000	     -0.00000000	     -0.00000000	     -0.00000000	      0.00000000	      0.00000000	    -18.01705079	    -19.63998859	      7.63116634	      8.31856566	     -7.63116634	     -8.31856566	     18.01705079	     19.63998859	     -3.64805820	     -3.97666757	     29.48192969	     32.13759952	     13.25222266	     14.44595483	    -13.25222266	    -14.44595483	    -29.48192969	    -32.13759952	      3.64805820	      3.97666757	     30.00000000	     -0.00000000	     74.45132819	     81.15774625	    -30.00000000	     -0.00000000	      0.00000000	      0.00000000
      1.76550813	     -0.00000000	     -0.00000000	      0.00000000	      0.00000000	      0.00000000	      0.00000000	      0.00000000	     -0.00000000	     -0.00000000	     -0.00000000	      0.00000000	      0.00000000	    -19.06258453	    -19.05176631	      8.07400474	      8.06942266	     -8.07400474	     -8.06942266	     19.06258453	     19.05176631	     -3.85975589	     -3.85756544	     31.19277307	     31.17507084	     14.02125229	     14.01329508	    -14.02125229	    -14.01329508	    -31.19277307	    -31.17507084	      3.85975589	      3.85756544	     30.00000000	     -0.00000000	     78.77175644	     78.72705263	    -30.00000000	     -0.00000000	      0.00000000	      0.00000000
      1.81934256	     -0.00000000	     -0.00000000	      0.00000000	      0.00000000	      0.00000000	      0.00000000	      0.00000000	     -0.00000000	     -0.00000000	     -0.00000000	      0.00000000	      0.00000000	    -20.04691885	    -17.26836288	      8.49092197	      7.31405773	     -8.49092197	     -7.31405773	     20.04691885	     17.26836288	     -4.05906203	     -3.49646530	     32.80347372	     28.25682551	     14.74526744	     12.70153437	    -14.74526744	    -12.70153437	    -32.80347372	    -28.25682551	      4.05906203	      3.49646530	     30.00000000	     -0.00000000	     82.83929218	     71.35754719	    -30.00000000	     -0.00000000	      0.00000000	      0.00000000
      1.86516345	     -0.00000000	     -0.00000000	      0.00000000	      0.00000000	      0.00000000	      0.00000000	      0.00000000	     -0.00000000	     -0.00000000	     -0.00000000	      0.00000000	      0.00000000	    -20.77764845	    -14.39667154	      8.80042430	      6.09774578	     -8.80042430	     -6.09774578	     20.77764845	     14.39667154	     -4.20701877	     -2.91501069	     33.99919208	     23.55777664	     15.28274671	     10.58929672	    -15.28274671	    -10.58929672	    -33.99919208	    -23.55777664	      4.20701877	      2.91501069	     30.00000000	     -0.00000000	     85.85886455	     59.49094167	    -30.00000000	     -0.00000000	      0.00000000	      0.00000000
      1.91098433	     -0.00000000	     -0.00000000	      0.00000000	      0.00000000	      0.00000000	      0.00000000	      0.00000000	     -0.00000000	     -0.00000000	      0.00000000	      0.00000000	      0.00000000	    -21.34472792	    -10.13119381	      9.04061221	      4.29109215	     -9.04061221	     -4.29109215	     21.34472792	     10.13119381	     -4.32183995	     -2.05134487	     34.92712404	     16.57802639	     15.69985512	      7.45187643	    -15.69985512	     -7.45187643	    -34.92712404	    -16.57802639	      4.32183995	      2.05134487	     30.00000000	     -0.00000000	     88.20219035	     41.86483370	    -30.00000000	      0.00000000	      0.00000000	      0.00000000
